<?xml version="1.0" encoding="UTF-8" standalone="no"?>
<!-- Created with Inkscape (http://www.inkscape.org/) -->

<svg
   width="210mm"
   height="297mm"
   viewBox="0 0 210 297"
   version="1.1"
   id="svg1"
   xml:space="preserve"
   sodipodi:docname="logo.svg"
   inkscape:version="1.4.3 (0d15f75, 2025-12-25)"
   xmlns:inkscape="http://www.inkscape.org/namespaces/inkscape"
   xmlns:sodipodi="http://sodipodi.sourceforge.net/DTD/sodipodi-0.dtd"
   xmlns="http://www.w3.org/2000/svg"
   xmlns:svg="http://www.w3.org/2000/svg"><sodipodi:namedview
     id="namedview1"
     pagecolor="#ffffff"
     bordercolor="#000000"
     borderopacity="0.25"
     inkscape:showpageshadow="2"
     inkscape:pageopacity="0.0"
     inkscape:pagecheckerboard="0"
     inkscape:deskcolor="#d1d1d1"
     inkscape:document-units="mm"
     inkscape:zoom="0.7349537"
     inkscape:cx="-34.696063"
     inkscape:cy="525.88346"
     inkscape:window-width="1920"
     inkscape:window-height="1027"
     inkscape:window-x="-8"
     inkscape:window-y="-8"
     inkscape:window-maximized="1"
     inkscape:current-layer="svg1"><inkscape:page
       x="0"
       y="0"
       width="210"
       height="297"
       id="page2"
       margin="0"
       bleed="0" /></sodipodi:namedview><defs
     id="defs1" /><g
     inkscape:groupmode="layer"
     id="layer2"
     inkscape:label="лого"
     sodipodi:insensitive="true"><g
       id="g6"
       inkscape:label="зеркало"
       transform="matrix(1.5037412,0,0,1.5037412,-71.923197,-68.184503)"><path
         style="display:inline;fill:#614c4c;fill-opacity:1;stroke-width:0.264583"
         d="m 121.61529,189.93242 0.65231,-0.0636 c 0,0 0.30229,-0.11138 0.60458,-0.33411 0.30228,-0.22274 0.66821,-0.57276 0.87504,-0.85914 0.20683,-0.28638 0.41366,-0.66821 0.60458,-1.19324 0.19092,-0.52503 0.33797,-1.05105 0.3632,-1.36825 0.045,-0.5657 -0.0291,-1.55917 -0.0291,-1.55917 0,0 -0.0159,-0.20683 -0.0636,-0.68413 -0.0477,-0.47729 -0.24266,-1.49142 -0.3415,-1.81373 -0.11137,-0.36319 -0.55685,-1.73851 -0.62435,-2.00271 -0.0236,-0.0925 -0.31546,-1.11563 -0.3791,-1.40201 -0.0636,-0.28637 -0.30968,-1.20915 -0.3415,-2.02055 -0.0318,-0.81141 -0.0795,-1.09779 -0.0477,-2.02056 0.0318,-0.92278 0.46139,-2.21148 0.68412,-2.60922 0.22274,-0.39775 0.4773,-1.08188 1.24098,-1.73418 0.76367,-0.65231 2.45012,-1.73418 2.45012,-1.73418 0,0 1.55917,-1.22507 2.00465,-1.62281 0.44548,-0.39775 1.41598,-1.54326 1.59099,-1.73418 0.17501,-0.19092 1.33643,-2.22739 1.54326,-2.70469 0.20683,-0.47729 0.65231,-1.6069 0.81141,-2.33875 0.15909,-0.73186 0.4932,-1.90919 0.55684,-2.4024 0.0636,-0.4932 0.11137,-2.33875 0.0955,-3.34108 -0.0159,-1.00232 -0.0636,-1.38416 -0.0796,-1.65463 -0.0159,-0.27046 -0.0476,-0.57556 -0.0832,-0.77211 -0.0342,-0.18851 -0.12364,-0.61205 -0.20322,-0.91434 -0.0795,-0.30228 -0.19887,-0.67219 -0.20682,-0.71594 -0.008,-0.0438 -0.85828,-2.23034 -0.93692,-2.4233 -0.77804,-1.90901 -1.37305,-2.56526 -1.44562,-2.655 -0.65634,-0.81165 -2.24465,-2.33361 -2.68875,-2.7 -0.30687,-0.25318 -1.02375,-0.74812 -1.41188,-1.0125 -0.38812,-0.26437 -1.11375,-0.6975 -1.51875,-0.82687 -0.405,-0.12938 -1.69875,-0.59063 -2.3175,-0.69188 -0.61875,-0.10125 -2.19375,-0.12375 -2.53687,-0.11812 -0.34313,0.006 -1.04625,0.0225 -1.62563,0.135 -0.57937,0.1125 -2.39625,0.675 -2.39625,0.675 l 0.93094,0.92812 c 0,0 0.59062,-0.21656 0.77625,-0.28125 0.18562,-0.0647 1.05215,-0.25941 1.33135,-0.30468 0.4415,-0.0716 0.85119,-0.0783 1.17733,-0.0756 0.54896,0.005 0.76368,0.0279 0.76368,0.0279 0,0 0.65031,0.0656 0.87703,0.1233 0.22672,0.0577 1.36626,0.39178 1.46769,0.44547 0.10142,0.0537 1.29467,0.58072 1.38217,0.63242 0.0875,0.0517 1.28671,0.86311 1.43786,0.97846 0.15114,0.11535 0.98243,0.80942 1.05999,0.87703 0.0776,0.0676 1.37024,1.48559 1.39411,1.51741 0.0239,0.0318 0.99437,1.53929 1.00232,1.55321 0.008,0.0139 0.75709,1.6276 0.77678,1.68104 0.0197,0.0534 0.47576,1.27037 0.50994,1.36968 0.10539,0.30623 0.37388,1.19921 0.4415,1.51144 0.0358,0.16535 0.177,1.73816 0.177,1.78788 0,0.0497 0.0517,3.6553 0.0517,3.6553 0,0 0.0398,0.14318 -0.0955,1.09778 -0.14314,1.20915 -1.02619,3.35301 -1.10971,3.50813 -0.0835,0.15512 -0.94267,1.98476 -1.21712,2.25921 -0.2666,0.2666 -1.01027,1.24097 -1.12562,1.38416 -0.10592,0.13148 -1.17335,1.10972 -1.26483,1.17733 -0.0915,0.0676 -1.1737,0.86913 -1.2887,0.93471 -0.0664,0.0378 -1.22041,0.62981 -1.46701,0.73322 -0.24661,0.10341 -1.63361,0.48196 -2.17636,0.57139 -0.43908,0.0724 -1.61088,0.0358 -1.69441,0.0358 -0.0835,0 -0.89891,-0.0597 -1.26086,-0.13524 -0.36195,-0.0756 -1.11369,-0.29035 -1.30461,-0.37388 -0.19092,-0.0835 -0.6922,-0.27967 -0.98244,-0.42479 -0.22273,-0.11137 -1.13755,-0.68095 -1.13755,-0.68095 0,0 -0.87903,0.69606 -0.86311,0.70004 0.0159,0.004 1.43586,0.96653 1.43586,0.96653 0,0 1.22904,0.79549 1.6427,1.2171 0.41366,0.42162 1.06596,1.20518 1.32052,1.58304 0.25456,0.37786 0.56083,1.05801 0.65629,1.49951 0.0954,0.4415 0.22273,1.47166 0.22273,1.94896 0,0.4773 -0.13921,2.65695 -0.19489,2.79617 -0.0557,0.13921 -0.71681,2.93717 -0.82931,3.28592 -0.1125,0.34875 -0.4275,1.7775 -0.52875,2.17125 -0.10125,0.39375 -0.2025,1.40625 -0.21375,1.99125 -0.0112,0.585 0.2025,1.74375 0.33187,2.12625 0.0931,0.27528 0.52313,1.10812 0.64688,1.26562 0.12375,0.1575 0.77062,0.81563 1.07438,0.96188 0.30375,0.14625 1.06592,0.18992 1.06592,0.18992 z"
         id="path1"
         sodipodi:nodetypes="ccsssscsssssssscsssssscsccsssssscsccssscsssssscssssccsssssssscsscscsscsssscssscc" /><path
         style="display:inline;fill:#614c4c;fill-opacity:1;stroke:#614c4c;stroke-width:0.264583;stroke-opacity:1"
         d="m 127.34286,151.62137 -5.40937,7.12764"
         id="path2" /><path
         style="display:inline;fill:#614c4c;fill-opacity:1;stroke:#614c4c;stroke-width:0.176;stroke-linejoin:round;stroke-dasharray:none;stroke-opacity:1"
         d="m 125.72804,147.78348 -3.58895,4.72896"
         id="path2-5" /></g><g
       id="g5"
       transform="translate(-40.220234,-50.529851)"
       inkscape:label="B"><path
         style="fill:none;fill-opacity:1;stroke:#614c4c;stroke-width:6.28981;stroke-linecap:butt;stroke-linejoin:miter;stroke-dasharray:none;stroke-opacity:1"
         d="m 95.291463,194.53539 v -47.998 H 94.98314 v 0 0"
         id="path4" /><path
         style="fill:none;fill-opacity:1;stroke:#614c4c;stroke-width:1.676;stroke-linecap:butt;stroke-linejoin:miter;stroke-miterlimit:4;stroke-dasharray:none;stroke-opacity:1"
         d="m 98.110449,144.24115 c 0,0 17.701901,-0.10478 18.574551,-0.0611 1.8,0.09 4.03738,0.55486 5.715,0.945 1.935,0.45 4.2659,1.75954 5.49772,2.45184 2.09956,1.17998 3.94588,3.48684 4.71088,4.74684 0.765,1.26 1.5782,2.81955 1.8032,3.94455 0.225,1.125 0.48182,2.89225 0.52682,4.06225 0.045,1.17 -0.003,2.78134 -0.2732,4.31134 -0.27,1.53 -0.88682,3.06 -1.47182,4.32 -0.585,1.26 -1.56408,2.61226 -2.73408,3.69226 -1.17,1.08 -3.01726,2.295 -4.68226,3.285 -1.665,0.99 -6.76872,2.60855 -8.05726,2.62092 -24.806656,0.23818 -3.285,0.405 0.225,1.26 3.51,0.855 6.86388,2.39017 7.965,2.925 1.575,0.765 7.29,4.68 8.91,6.885 1.11298,1.51489 3.96,4.59 5.4,7.965 1.19278,2.79559 2.385,5.49 2.745,8.775 0.26544,2.42216 0.69669,6.06922 0.45,8.865 -0.27,3.06 -0.54,5.76 -2.25,9.99 -1.74507,4.31676 -4.41,8.325 -6.57,10.305 -2.16,1.98 -5.67,4.59 -7.74,5.49 -2.07,0.9 -3.96,1.98 -7.83,2.34 -3.87,0.36 -8.82,0.045 -10.755,-0.135 -1.935,-0.18 -4.545,-0.54 -8.1,-2.16 -3.555,-1.62 -7.3992,-4.61758 -9.321398,-7.50088 -2.07,-3.105 -3.374573,-5.97937 -3.959999,-8.57956 -0.730918,-3.2464 -1.066266,-6.69788 -0.858198,-9.66502 0.285441,-4.07051 1.182783,-6.72982 2.879999,-9.84182 2.157739,-3.95642 3.664577,-5.67772 7.198677,-7.75318 3.374115,-1.9815 4.732239,-2.51897 7.518199,-3.21044 2.32588,-0.57728 3.8668,-0.50592 4.86772,-0.4741 0.80959,0.0257 1.82483,-0.0583 3.15,0.315 1.63638,0.46092 3.09425,0.96323 3.87,1.575 0.95046,0.74956 2.11406,1.99365 2.60906,2.89365 0.495,0.9 0.84408,1.38634 1.16228,2.88226 0.27152,1.27644 0.19864,1.92907 4.7e-4,3.53636 -0.1672,1.35613 -0.66681,2.61273 -1.02681,3.28773 -0.36,0.675 -1.575,2.25 -1.575,2.25 v 0 0.09"
         id="path5"
         sodipodi:nodetypes="cssssssssssssssssssssssssssssssssssssccc" /></g></g></svg>
